<?xml version="1.0" encoding="UTF-8" standalone="no"?>
<!DOCTYPE svg PUBLIC "-//W3C//DTD SVG 1.1//EN" "http://www.w3.org/Graphics/SVG/1.1/DTD/svg11.dtd">
<!-- Generated by graphviz version 2.40.1 (20161225.0304)
 -->
<!-- Title: Tree Pages: 1 -->
<svg width="419pt" height="400pt" viewBox="0.00 0.00 418.88 400.00" xmlns="http://www.w3.org/2000/svg" xmlns:xlink="http://www.w3.org/1999/xlink">
<g id="graph0" class="graph" transform="scale(1 1) rotate(0) translate(4 396)">
<title>Tree</title>
<polygon fill="#ffffff" stroke="transparent" points="-4,4 -4,-396 414.8842,-396 414.8842,4 -4,4"/>
<!-- 0 -->
<g id="node1" class="node">
<title>0</title>
<polygon fill="none" stroke="#000000" points="201.8922,-392.1003 65.992,-392.1003 65.992,-316.6997 201.8922,-316.6997 201.8922,-392.1003"/>
<text text-anchor="middle" x="133.9421" y="-375.4" font-family="Helvetica,sans-Serif" font-size="14.00" fill="#000000">petal width &lt;= 0.75</text>
<text text-anchor="middle" x="133.9421" y="-358.6" font-family="Helvetica,sans-Serif" font-size="14.00" fill="#000000">entropy = 1.585</text>
<text text-anchor="middle" x="133.9421" y="-341.8" font-family="Helvetica,sans-Serif" font-size="14.00" fill="#000000">samples = 105</text>
<text text-anchor="middle" x="133.9421" y="-325" font-family="Helvetica,sans-Serif" font-size="14.00" fill="#000000">value = [35, 35, 35]</text>
</g>
<!-- 1 -->
<g id="node2" class="node">
<title>1</title>
<polygon fill="none" stroke="#000000" points="119.8264,-272.6014 .0578,-272.6014 .0578,-213.7986 119.8264,-213.7986 119.8264,-272.6014"/>
<text text-anchor="middle" x="59.9421" y="-255.8" font-family="Helvetica,sans-Serif" font-size="14.00" fill="#000000">entropy = 0.0</text>
<text text-anchor="middle" x="59.9421" y="-239" font-family="Helvetica,sans-Serif" font-size="14.00" fill="#000000">samples = 35</text>
<text text-anchor="middle" x="59.9421" y="-222.2" font-family="Helvetica,sans-Serif" font-size="14.00" fill="#000000">value = [35, 0, 0]</text>
</g>
<!-- 0&#45;&gt;1 -->
<g id="edge1" class="edge">
<title>0-&gt;1</title>
<path fill="none" stroke="#000000" d="M108.8891,-316.7528C101.271,-305.305 92.896,-292.7199 85.2605,-281.246"/>
<polygon fill="#000000" stroke="#000000" points="88.0445,-279.1119 79.5906,-272.7258 82.2169,-282.99 88.0445,-279.1119"/>
<text text-anchor="middle" x="74.6673" y="-293.0363" font-family="Helvetica,sans-Serif" font-size="14.00" fill="#000000">True</text>
</g>
<!-- 2 -->
<g id="node3" class="node">
<title>2</title>
<polygon fill="none" stroke="#000000" points="277.6744,-280.9003 138.2098,-280.9003 138.2098,-205.4997 277.6744,-205.4997 277.6744,-280.9003"/>
<text text-anchor="middle" x="207.9421" y="-264.2" font-family="Helvetica,sans-Serif" font-size="14.00" fill="#000000">petal length &lt;= 4.75</text>
<text text-anchor="middle" x="207.9421" y="-247.4" font-family="Helvetica,sans-Serif" font-size="14.00" fill="#000000">entropy = 1.0</text>
<text text-anchor="middle" x="207.9421" y="-230.6" font-family="Helvetica,sans-Serif" font-size="14.00" fill="#000000">samples = 70</text>
<text text-anchor="middle" x="207.9421" y="-213.8" font-family="Helvetica,sans-Serif" font-size="14.00" fill="#000000">value = [0, 35, 35]</text>
</g>
<!-- 0&#45;&gt;2 -->
<g id="edge2" class="edge">
<title>0-&gt;2</title>
<path fill="none" stroke="#000000" d="M158.9951,-316.7528C164.8417,-307.9671 171.1341,-298.5115 177.1958,-289.4025"/>
<polygon fill="#000000" stroke="#000000" points="180.2885,-291.0726 182.9149,-280.8085 174.4609,-287.1946 180.2885,-291.0726"/>
<text text-anchor="middle" x="187.8381" y="-301.1189" font-family="Helvetica,sans-Serif" font-size="14.00" fill="#000000">False</text>
</g>
<!-- 3 -->
<g id="node4" class="node">
<title>3</title>
<polygon fill="none" stroke="#000000" points="193.8264,-161.4014 74.0578,-161.4014 74.0578,-102.5986 193.8264,-102.5986 193.8264,-161.4014"/>
<text text-anchor="middle" x="133.9421" y="-144.6" font-family="Helvetica,sans-Serif" font-size="14.00" fill="#000000">entropy = 0.0</text>
<text text-anchor="middle" x="133.9421" y="-127.8" font-family="Helvetica,sans-Serif" font-size="14.00" fill="#000000">samples = 30</text>
<text text-anchor="middle" x="133.9421" y="-111" font-family="Helvetica,sans-Serif" font-size="14.00" fill="#000000">value = [0, 30, 0]</text>
</g>
<!-- 2&#45;&gt;3 -->
<g id="edge3" class="edge">
<title>2-&gt;3</title>
<path fill="none" stroke="#000000" d="M182.8891,-205.5528C175.271,-194.105 166.896,-181.5199 159.2605,-170.046"/>
<polygon fill="#000000" stroke="#000000" points="162.0445,-167.9119 153.5906,-161.5258 156.2169,-171.79 162.0445,-167.9119"/>
</g>
<!-- 4 -->
<g id="node5" class="node">
<title>4</title>
<polygon fill="none" stroke="#000000" points="351.6744,-169.7003 212.2098,-169.7003 212.2098,-94.2997 351.6744,-94.2997 351.6744,-169.7003"/>
<text text-anchor="middle" x="281.9421" y="-153" font-family="Helvetica,sans-Serif" font-size="14.00" fill="#000000">petal length &lt;= 5.15</text>
<text text-anchor="middle" x="281.9421" y="-136.2" font-family="Helvetica,sans-Serif" font-size="14.00" fill="#000000">entropy = 0.544</text>
<text text-anchor="middle" x="281.9421" y="-119.4" font-family="Helvetica,sans-Serif" font-size="14.00" fill="#000000">samples = 40</text>
<text text-anchor="middle" x="281.9421" y="-102.6" font-family="Helvetica,sans-Serif" font-size="14.00" fill="#000000">value = [0, 5, 35]</text>
</g>
<!-- 2&#45;&gt;4 -->
<g id="edge4" class="edge">
<title>2-&gt;4</title>
<path fill="none" stroke="#000000" d="M232.9951,-205.5528C238.8417,-196.7671 245.1341,-187.3115 251.1958,-178.2025"/>
<polygon fill="#000000" stroke="#000000" points="254.2885,-179.8726 256.9149,-169.6085 248.4609,-175.9946 254.2885,-179.8726"/>
</g>
<!-- 5 -->
<g id="node6" class="node">
<title>5</title>
<polygon fill="none" stroke="#000000" points="272.8264,-58.6014 153.0578,-58.6014 153.0578,.2014 272.8264,.2014 272.8264,-58.6014"/>
<text text-anchor="middle" x="212.9421" y="-41.8" font-family="Helvetica,sans-Serif" font-size="14.00" fill="#000000">entropy = 0.918</text>
<text text-anchor="middle" x="212.9421" y="-25" font-family="Helvetica,sans-Serif" font-size="14.00" fill="#000000">samples = 15</text>
<text text-anchor="middle" x="212.9421" y="-8.2" font-family="Helvetica,sans-Serif" font-size="14.00" fill="#000000">value = [0, 5, 10]</text>
</g>
<!-- 4&#45;&gt;5 -->
<g id="edge5" class="edge">
<title>4-&gt;5</title>
<path fill="none" stroke="#000000" d="M256.6408,-94.3048C250.6366,-85.3593 244.2313,-75.8163 238.2277,-66.8718"/>
<polygon fill="#000000" stroke="#000000" points="241.1001,-64.8711 232.6209,-58.5186 235.288,-68.7723 241.1001,-64.8711"/>
</g>
<!-- 6 -->
<g id="node7" class="node">
<title>6</title>
<polygon fill="none" stroke="#000000" points="410.8264,-58.6014 291.0578,-58.6014 291.0578,.2014 410.8264,.2014 410.8264,-58.6014"/>
<text text-anchor="middle" x="350.9421" y="-41.8" font-family="Helvetica,sans-Serif" font-size="14.00" fill="#000000">entropy = 0.0</text>
<text text-anchor="middle" x="350.9421" y="-25" font-family="Helvetica,sans-Serif" font-size="14.00" fill="#000000">samples = 25</text>
<text text-anchor="middle" x="350.9421" y="-8.2" font-family="Helvetica,sans-Serif" font-size="14.00" fill="#000000">value = [0, 0, 25]</text>
</g>
<!-- 4&#45;&gt;6 -->
<g id="edge6" class="edge">
<title>4-&gt;6</title>
<path fill="none" stroke="#000000" d="M307.2434,-94.3048C313.2476,-85.3593 319.6529,-75.8163 325.6565,-66.8718"/>
<polygon fill="#000000" stroke="#000000" points="328.5962,-68.7723 331.2633,-58.5186 322.7841,-64.8711 328.5962,-68.7723"/>
</g>
</g>
</svg>